<?xml version="1.0" encoding="UTF-8" standalone="no"?>
<!-- Uploaded to: SVG Repo, www.svgrepo.com, Generator: SVG Repo Mixer Tools -->

<svg
   fill="#000000"
   height="500"
   width="1024"
   version="1.1"
   id="Layer_1"
   viewBox="0 0 655.55072 320.09312"
   xml:space="preserve"
   sodipodi:docname="feature-graphic.svg"
   inkscape:version="1.2.2 (b0a8486541, 2022-12-01)"
   inkscape:export-filename="feature-graphic.png"
   inkscape:export-xdpi="96"
   inkscape:export-ydpi="96"
   xmlns:inkscape="http://www.inkscape.org/namespaces/inkscape"
   xmlns:sodipodi="http://sodipodi.sourceforge.net/DTD/sodipodi-0.dtd"
   xmlns="http://www.w3.org/2000/svg"
   xmlns:svg="http://www.w3.org/2000/svg"><defs
   id="defs2802"><rect
     x="-46.26506"
     y="-26.987952"
     width="838.55422"
     height="293.01205"
     id="rect314" /><rect
     x="25.060241"
     y="13.493976"
     width="738.31325"
     height="273.73494"
     id="rect308" /><rect
     x="30.843372"
     y="132.04819"
     width="944.57831"
     height="614.93976"
     id="rect2908" /></defs><sodipodi:namedview
   id="namedview2800"
   pagecolor="#3ddc84"
   bordercolor="#666666"
   borderopacity="1.0"
   inkscape:showpageshadow="2"
   inkscape:pageopacity="1"
   inkscape:pagecheckerboard="0"
   inkscape:deskcolor="#d1d1d1"
   showgrid="false"
   inkscape:zoom="0.51875"
   inkscape:cx="200.48193"
   inkscape:cy="267.95181"
   inkscape:window-width="1920"
   inkscape:window-height="1005"
   inkscape:window-x="1280"
   inkscape:window-y="0"
   inkscape:window-maximized="1"
   inkscape:current-layer="Layer_1" />
<g
   transform="matrix(0.57193256,0,0,0.57193256,13.003203,13.030102)"
   id="g2797">
	<g
   id="g2795">
		<g
   id="g2793">
			<path
   d="m 504.427,111.44 -1.253,-1.254 C 491.398,98.41 472.207,98.384 460.36,110.221 l -46.089,46.574 c -2.428,2.436 -6.312,2.534 -8.845,0.203 L 340.808,97.341 c -6.276,-5.8 -14.442,-8.987 -22.996,-8.987 h -96.124 c -2.269,0 -4.44,0.865 -6.082,2.419 l -81.47,77.356 c -11.935,11.944 -12.756,31.197 -1.818,42.92 5.844,6.268 13.736,9.719 22.219,9.719 h 0.15 c 8.413,-0.044 16.499,-3.619 22.087,-9.728 l 57.538,-60.893 h 20.595 L 120.63,300.218 H 37.81 c -19.633,0 -35.778,14.68 -36.758,33.421 -0.521,9.79 2.904,19.094 9.64,26.191 6.638,7 15.969,11.008 25.618,11.008 h 123.586 c 2.436,0 4.767,-1.006 6.444,-2.798 l 63.32,-67.593 53.248,55.684 -16.075,102.735 c -4.052,17.02 4.114,34.357 19.412,41.198 4.714,2.119 9.719,3.178 14.698,3.178 5.358,0 10.69,-1.227 15.598,-3.655 9.481,-4.696 16.296,-13.285 18.776,-23.967 L 362.78,328.314 c 0.53,-2.86 -0.38,-5.809 -2.445,-7.865 l -73.295,-73.198 58.227,-58.138 40.589,40.58 c 11.335,11.335 31.091,11.335 42.417,0 l 76.156,-76.147 c 5.623,-5.623 8.722,-13.109 8.722,-21.054 -0.002,-7.952 -3.101,-15.429 -8.724,-21.052 z"
   id="path2789" />
			<path
   d="m 407.065,114.837 c 29.211,0 52.966,-23.755 52.966,-52.966 0,-29.211 -23.755,-52.966 -52.966,-52.966 -29.21,0 -52.966,23.755 -52.966,52.966 0.001,29.211 23.756,52.966 52.966,52.966 z"
   id="path2791" />
		</g>
	</g>
</g>
<g
   aria-label="ADB"
   transform="matrix(0.46822217,0,0,0.46822217,277.432,82.697367)"
   id="text2906"
   style="font-weight:bold;font-size:96px;line-height:1.25;-inkscape-font-specification:'sans-serif, Bold';white-space:pre;shape-inside:url(#rect2908);stroke:#000000;stroke-width:5;stroke-dasharray:none;stroke-opacity:1"><path
     d="M 206.51025,435.34026 189.17693,378.67365 H 102.51035 L 85.17703,435.34026 H 30.84375 l 83.99992,-238.99977 h 61.6666 l 84.33326,238.99977 z M 159.84362,281.00708 q -1.66666,-5.66666 -4.33333,-14.33332 -2.66666,-8.66666 -5.33332,-17.66665 -2.66667,-8.99999 -4.33333,-15.66665 -1.66667,6.66666 -4.66666,16.66665 -2.66667,9.66665 -5.33333,18.66665 -2.33333,8.66665 -3.66667,12.33332 L 115.177,336.34036 h 61.99994 z"
     style="font-size:333.333px;fill:#ff0000;stroke:#000000;stroke-width:5;stroke-dasharray:none;stroke-opacity:1"
     id="path299" /><path
     d="m 488.17682,314.00704 q 0,60.33328 -34.3333,90.99992 -33.99997,30.3333 -95.66658,30.3333 H 290.84367 V 197.34049 h 74.6666 q 37.3333,0 64.6666,13.33332 27.66664,13.33332 42.66663,39.3333 15.33332,25.66664 15.33332,63.99993 z m -52.33329,1.33334 q 0,-39.66663 -17.33331,-57.99995 -17.33332,-18.66664 -50.33329,-18.66664 h -26.99997 v 154.99984 h 21.66664 q 72.99993,0 72.99993,-78.33325 z"
     style="font-size:333.333px;fill:#ff0000;stroke:#000000;stroke-width:5;stroke-dasharray:none;stroke-opacity:1"
     id="path301" /><path
     d="m 611.50997,197.34049 q 47.66662,0 71.99993,13.33332 24.33331,13.33332 24.33331,46.99996 0,20.33331 -9.66666,34.3333 -9.33332,13.99998 -26.99997,16.99998 v 1.66666 q 11.99999,2.33334 21.66664,8.33333 9.66666,5.99999 15.33332,17.33332 5.66666,11.33332 5.66666,29.99997 0,32.3333 -23.33331,50.66661 -23.33331,18.33332 -63.99994,18.33332 H 537.51004 V 197.34049 Z m 5.66666,94.33324 q 21.99998,0 30.3333,-6.99999 8.66666,-6.99999 8.66666,-20.33331 0,-13.66666 -9.99999,-19.66665 -9.99999,-5.99999 -31.66663,-5.99999 h -26.66664 v 52.99994 z m -29.3333,39.99996 v 61.99994 h 32.99996 q 22.66665,0 31.66664,-8.66665 8.99999,-9 8.99999,-23.66665 0,-13.33332 -9.33332,-21.33331 -9,-8.33333 -32.99997,-8.33333 z"
     style="font-size:333.333px;fill:#ff0000;stroke:#000000;stroke-width:5;stroke-dasharray:none;stroke-opacity:1"
     id="path303" /></g><text
   xml:space="preserve"
   transform="scale(0.64018625)"
   id="text306"
   style="white-space:pre;shape-inside:url(#rect308);display:inline;fill:#000000" /><text
   xml:space="preserve"
   transform="matrix(0.64018625,0,0,0.64018625,399.84645,33.320537)"
   id="text312"
   style="white-space:pre;shape-inside:url(#rect314);display:inline;fill:#000000"><tspan
     x="-46.265625"
     y="60.359736"
     id="tspan150"><tspan
       style="font-size:96px;-inkscape-font-specification:'sans-serif, Normal'"
       id="tspan148">Runner
</tspan></tspan><tspan
     x="-46.265625"
     y="180.35974"
     id="tspan154"><tspan
       style="font-size:96px;-inkscape-font-specification:'sans-serif, Normal'"
       id="tspan152">   for</tspan></tspan></text></svg>
